<?xml version="1.0" standalone="no"?><!DOCTYPE svg PUBLIC "-//W3C//DTD SVG 1.1//EN" "http://www.w3.org/Graphics/SVG/1.1/DTD/svg11.dtd"><svg t="1544010080609" class="icon" style="" viewBox="0 0 1024 1024" version="1.1" xmlns="http://www.w3.org/2000/svg" p-id="1994" xmlns:xlink="http://www.w3.org/1999/xlink" width="200" height="200"><defs><style type="text/css"></style></defs><path d="M735.74386 601.727624a219.903863 219.903863 0 0 1-156.607902 65.023959 219.711863 219.711863 0 0 1-156.671902-65.023959 31.99998 31.99998 0 0 1 45.247972-45.247972c59.519963 59.519963 163.263898 59.583963 222.78386 0l223.359861-223.35986a157.567902 157.567902 0 0 0-222.719861-222.847861L552.959974 248.319845a31.99998 31.99998 0 0 1-45.247971-45.183972l138.047913-138.047914a221.695861 221.695861 0 0 1 313.279805 0 221.631861 221.631861 0 0 1 0 313.279805l-223.359861 223.35986zM221.632181 1023.99936a220.543862 220.543862 0 0 1-156.607902-64.76796 221.887861 221.887861 0 0 1 0-313.343804l223.359861-223.35986c83.711948-83.711948 229.631856-83.839948 313.343804 0a31.99998 31.99998 0 0 1-45.247972 45.247972c-59.519963-59.711963-163.327898-59.519963-222.783861 0l-223.48786 223.35986a157.887901 157.887901 0 0 0 0 222.847861 157.887901 157.887901 0 0 0 222.847861 0l138.111914-138.175914a31.99998 31.99998 0 0 1 45.247971 45.247972L378.240084 959.2314a220.543862 220.543862 0 0 1-156.607903 64.70396z" fill="#d81e06" p-id="1995"></path></svg>